<?xml version="1.0" standalone="no"?>
<!DOCTYPE svg PUBLIC "-//W3C//DTD SVG 20010904//EN"
 "http://www.w3.org/TR/2001/REC-SVG-20010904/DTD/svg10.dtd">
<svg version="1.0" xmlns="http://www.w3.org/2000/svg"
 width="100px" height="3px" viewBox="0 0 260.000000 260.000000"
 preserveAspectRatio="xMidYMid meet">

<g transform="translate(0.000000,260.000000) scale(0.100000,-0.100000)"
fill="#000000" stroke="none">
<path d="M987 2593 c-4 -3 -7 -32 -7 -64 l0 -58 -301 -3 -301 -3 -24 -28 c-23
-27 -24 -35 -24 -168 l0 -139 970 0 970 0 0 139 c0 133 -1 141 -24 168 l-24
28 -301 3 -300 3 -3 62 -3 62 -311 3 c-171 1 -313 -1 -317 -5z"/>
<path d="M474 1883 c4 -49 18 -331 31 -628 60 -1284 51 -1195 118 -1235 31
-19 55 -20 677 -20 622 0 646 1 677 20 61 37 60 32 88 602 13 287 29 618 35
733 5 116 12 262 15 325 3 63 8 154 11 203 l6 87 -832 0 -832 0 6 -87z m534
-335 c9 -9 12 -148 12 -564 0 -471 -2 -553 -15 -564 -18 -15 -86 -24 -119 -16
-59 15 -56 -11 -56 574 0 627 -8 582 99 582 39 0 72 -5 79 -12z m379 -18 c10
-20 12 -142 10 -557 -2 -606 4 -563 -89 -571 -43 -3 -58 0 -78 16 l-25 20 0
545 c0 453 2 547 14 561 11 13 28 16 85 14 64 -3 72 -5 83 -28z m367 8 c14
-20 16 -90 16 -560 0 -585 3 -559 -56 -574 -33 -8 -101 1 -119 16 -13 11 -15
93 -15 564 0 416 3 555 12 564 7 7 40 12 79 12 59 0 70 -3 83 -22z"/>
</g>
</svg>
